<mxfile host="app.diagrams.net" modified="2024-03-15T21:47:37.187Z" agent="Mozilla/5.0 (Windows NT 10.0; Win64; x64) AppleWebKit/537.36 (KHTML, like Gecko) Chrome/122.0.0.0 Safari/537.36" etag="vE2ujgAGWDHhnMEcEVy4" version="24.0.7" type="github">
  <diagram name="Страница-1" id="rezh9U_iXJxuoVXyzBha">
    <mxGraphModel dx="1235" dy="2268" grid="1" gridSize="10" guides="1" tooltips="1" connect="1" arrows="1" fold="1" page="1" pageScale="1" pageWidth="1169" pageHeight="827" math="0" shadow="0">
      <root>
        <mxCell id="0" />
        <mxCell id="1" parent="0" />
        <mxCell id="ufjw36M3w4z6FZMI2df--2" value="Product" style="rounded=0;whiteSpace=wrap;html=1;" vertex="1" parent="1">
          <mxGeometry x="480" y="-1460" width="120" height="60" as="geometry" />
        </mxCell>
        <mxCell id="ufjw36M3w4z6FZMI2df--7" style="edgeStyle=orthogonalEdgeStyle;rounded=0;orthogonalLoop=1;jettySize=auto;html=1;exitX=0.5;exitY=1;exitDx=0;exitDy=0;entryX=0;entryY=0.5;entryDx=0;entryDy=0;" edge="1" parent="1" source="ufjw36M3w4z6FZMI2df--3" target="ufjw36M3w4z6FZMI2df--2">
          <mxGeometry relative="1" as="geometry" />
        </mxCell>
        <mxCell id="ufjw36M3w4z6FZMI2df--3" value="Beverage" style="rounded=0;whiteSpace=wrap;html=1;direction=west;" vertex="1" parent="1">
          <mxGeometry x="270" y="-1330" width="120" height="60" as="geometry" />
        </mxCell>
        <mxCell id="ufjw36M3w4z6FZMI2df--8" style="edgeStyle=orthogonalEdgeStyle;rounded=0;orthogonalLoop=1;jettySize=auto;html=1;exitX=0.5;exitY=0;exitDx=0;exitDy=0;entryX=1;entryY=0.5;entryDx=0;entryDy=0;" edge="1" parent="1" source="ufjw36M3w4z6FZMI2df--5" target="ufjw36M3w4z6FZMI2df--2">
          <mxGeometry relative="1" as="geometry" />
        </mxCell>
        <mxCell id="ufjw36M3w4z6FZMI2df--5" value="Food" style="rounded=0;whiteSpace=wrap;html=1;" vertex="1" parent="1">
          <mxGeometry x="740" y="-1330" width="120" height="60" as="geometry" />
        </mxCell>
        <mxCell id="ufjw36M3w4z6FZMI2df--10" value="ColdBeverage" style="rounded=0;whiteSpace=wrap;html=1;" vertex="1" parent="1">
          <mxGeometry x="170" y="-1230" width="120" height="60" as="geometry" />
        </mxCell>
        <mxCell id="ufjw36M3w4z6FZMI2df--12" style="edgeStyle=orthogonalEdgeStyle;rounded=0;orthogonalLoop=1;jettySize=auto;html=1;exitX=0.5;exitY=0;exitDx=0;exitDy=0;entryX=0;entryY=0.5;entryDx=0;entryDy=0;" edge="1" parent="1" source="ufjw36M3w4z6FZMI2df--11" target="ufjw36M3w4z6FZMI2df--3">
          <mxGeometry relative="1" as="geometry" />
        </mxCell>
        <mxCell id="ufjw36M3w4z6FZMI2df--11" value="HotBeverage" style="rounded=0;whiteSpace=wrap;html=1;" vertex="1" parent="1">
          <mxGeometry x="360" y="-1230" width="120" height="60" as="geometry" />
        </mxCell>
        <mxCell id="ufjw36M3w4z6FZMI2df--13" style="edgeStyle=orthogonalEdgeStyle;rounded=0;orthogonalLoop=1;jettySize=auto;html=1;exitX=0.5;exitY=0;exitDx=0;exitDy=0;entryX=1;entryY=0.617;entryDx=0;entryDy=0;entryPerimeter=0;" edge="1" parent="1" source="ufjw36M3w4z6FZMI2df--10" target="ufjw36M3w4z6FZMI2df--3">
          <mxGeometry relative="1" as="geometry" />
        </mxCell>
        <mxCell id="ufjw36M3w4z6FZMI2df--14" value="Coffee" style="rounded=0;whiteSpace=wrap;html=1;" vertex="1" parent="1">
          <mxGeometry x="430" y="-1120" width="120" height="60" as="geometry" />
        </mxCell>
        <mxCell id="ufjw36M3w4z6FZMI2df--16" style="edgeStyle=orthogonalEdgeStyle;rounded=0;orthogonalLoop=1;jettySize=auto;html=1;exitX=0.5;exitY=0;exitDx=0;exitDy=0;entryX=0.25;entryY=1;entryDx=0;entryDy=0;" edge="1" parent="1" source="ufjw36M3w4z6FZMI2df--15" target="ufjw36M3w4z6FZMI2df--11">
          <mxGeometry relative="1" as="geometry" />
        </mxCell>
        <mxCell id="ufjw36M3w4z6FZMI2df--15" value="Tea" style="rounded=0;whiteSpace=wrap;html=1;" vertex="1" parent="1">
          <mxGeometry x="280" y="-1120" width="120" height="60" as="geometry" />
        </mxCell>
        <mxCell id="ufjw36M3w4z6FZMI2df--18" style="edgeStyle=orthogonalEdgeStyle;rounded=0;orthogonalLoop=1;jettySize=auto;html=1;exitX=0.5;exitY=0;exitDx=0;exitDy=0;entryX=0.697;entryY=1.043;entryDx=0;entryDy=0;entryPerimeter=0;" edge="1" parent="1" source="ufjw36M3w4z6FZMI2df--14" target="ufjw36M3w4z6FZMI2df--11">
          <mxGeometry relative="1" as="geometry" />
        </mxCell>
        <mxCell id="ufjw36M3w4z6FZMI2df--26" style="edgeStyle=orthogonalEdgeStyle;rounded=0;orthogonalLoop=1;jettySize=auto;html=1;exitX=0.5;exitY=0;exitDx=0;exitDy=0;entryX=1;entryY=0.5;entryDx=0;entryDy=0;" edge="1" parent="1" source="ufjw36M3w4z6FZMI2df--19" target="ufjw36M3w4z6FZMI2df--5">
          <mxGeometry relative="1" as="geometry" />
        </mxCell>
        <mxCell id="ufjw36M3w4z6FZMI2df--19" value="Dessert" style="rounded=0;whiteSpace=wrap;html=1;" vertex="1" parent="1">
          <mxGeometry x="880" y="-1240" width="120" height="60" as="geometry" />
        </mxCell>
        <mxCell id="ufjw36M3w4z6FZMI2df--25" style="edgeStyle=orthogonalEdgeStyle;rounded=0;orthogonalLoop=1;jettySize=auto;html=1;exitX=0.5;exitY=0;exitDx=0;exitDy=0;entryX=0.5;entryY=1;entryDx=0;entryDy=0;" edge="1" parent="1" source="ufjw36M3w4z6FZMI2df--20" target="ufjw36M3w4z6FZMI2df--5">
          <mxGeometry relative="1" as="geometry" />
        </mxCell>
        <mxCell id="ufjw36M3w4z6FZMI2df--20" value="Starter" style="rounded=0;whiteSpace=wrap;html=1;" vertex="1" parent="1">
          <mxGeometry x="740" y="-1240" width="120" height="60" as="geometry" />
        </mxCell>
        <mxCell id="ufjw36M3w4z6FZMI2df--24" style="edgeStyle=orthogonalEdgeStyle;rounded=0;orthogonalLoop=1;jettySize=auto;html=1;exitX=0.5;exitY=0;exitDx=0;exitDy=0;entryX=0;entryY=0.5;entryDx=0;entryDy=0;" edge="1" parent="1" source="ufjw36M3w4z6FZMI2df--21" target="ufjw36M3w4z6FZMI2df--5">
          <mxGeometry relative="1" as="geometry" />
        </mxCell>
        <mxCell id="ufjw36M3w4z6FZMI2df--21" value="MainDish" style="rounded=0;whiteSpace=wrap;html=1;" vertex="1" parent="1">
          <mxGeometry x="600" y="-1240" width="120" height="60" as="geometry" />
        </mxCell>
        <mxCell id="ufjw36M3w4z6FZMI2df--28" style="edgeStyle=orthogonalEdgeStyle;rounded=0;orthogonalLoop=1;jettySize=auto;html=1;exitX=0.5;exitY=0;exitDx=0;exitDy=0;entryX=0.5;entryY=1;entryDx=0;entryDy=0;" edge="1" parent="1" source="ufjw36M3w4z6FZMI2df--27" target="ufjw36M3w4z6FZMI2df--21">
          <mxGeometry relative="1" as="geometry" />
        </mxCell>
        <mxCell id="ufjw36M3w4z6FZMI2df--27" value="Cake" style="rounded=0;whiteSpace=wrap;html=1;" vertex="1" parent="1">
          <mxGeometry x="600" y="-1120" width="120" height="60" as="geometry" />
        </mxCell>
        <mxCell id="ufjw36M3w4z6FZMI2df--32" style="edgeStyle=orthogonalEdgeStyle;rounded=0;orthogonalLoop=1;jettySize=auto;html=1;exitX=0.5;exitY=0;exitDx=0;exitDy=0;" edge="1" parent="1" source="ufjw36M3w4z6FZMI2df--29" target="ufjw36M3w4z6FZMI2df--20">
          <mxGeometry relative="1" as="geometry" />
        </mxCell>
        <mxCell id="ufjw36M3w4z6FZMI2df--29" value="Salmon" style="rounded=0;whiteSpace=wrap;html=1;" vertex="1" parent="1">
          <mxGeometry x="740" y="-1120" width="120" height="60" as="geometry" />
        </mxCell>
        <mxCell id="ufjw36M3w4z6FZMI2df--31" style="edgeStyle=orthogonalEdgeStyle;rounded=0;orthogonalLoop=1;jettySize=auto;html=1;exitX=0.5;exitY=0;exitDx=0;exitDy=0;" edge="1" parent="1" source="ufjw36M3w4z6FZMI2df--30" target="ufjw36M3w4z6FZMI2df--19">
          <mxGeometry relative="1" as="geometry" />
        </mxCell>
        <mxCell id="ufjw36M3w4z6FZMI2df--30" value="Soup" style="rounded=0;whiteSpace=wrap;html=1;" vertex="1" parent="1">
          <mxGeometry x="880" y="-1120" width="120" height="60" as="geometry" />
        </mxCell>
      </root>
    </mxGraphModel>
  </diagram>
</mxfile>
